<svg width="21" height="20" viewBox="0 0 21 20" fill="none" xmlns="http://www.w3.org/2000/svg">
    <path d="M20.1925 6.43181C19.6842 5.10082 18.9026 3.90451 17.9121 2.91777C16.1242 1.13631 13.666 0.0282243 10.9471 0.00133344C10.9135 0.00133344 10.8827 0 10.8515 0C9.0534 0 7.36883 0.477147 5.91138 1.30521C3.79077 2.51374 2.15531 4.47366 1.36858 6.82384C1.03589 7.81436 0.852765 8.87466 0.850098 9.97629C0.850098 9.98652 0.850098 9.99163 0.850098 10.0019C0.850098 10.5926 0.904324 11.1733 1.00233 11.738C1.13901 12.5196 1.36614 13.2676 1.67327 13.977C3.20006 17.4933 6.68544 19.9595 10.7533 20.0008C10.7869 20.0008 10.8178 20.0033 10.8513 20.0033C12.6441 20.0033 14.3236 19.5286 15.7786 18.7032C18.8071 16.9853 20.8501 13.7321 20.8501 10.0019C20.8503 8.74309 20.6154 7.541 20.1925 6.43181ZM13.9084 17.9627C13.7589 17.9447 13.7124 17.8673 13.5809 17.9395C13.5858 17.8106 13.3562 17.9164 13.346 17.7978C12.9744 17.8469 12.6263 17.8855 12.345 18.0324C12.2419 18.0867 12.167 18.1976 12.0636 18.2209C11.9943 18.2338 11.8961 18.1876 11.829 18.1978C11.6225 18.2236 11.2794 18.5074 11.0371 18.5487C10.9262 18.564 10.8126 18.5331 10.6835 18.5487C10.6553 18.5616 10.6217 18.5718 10.5906 18.5847C9.84524 18.5616 9.12541 18.4454 8.4418 18.2442C8.4598 18.2158 8.48047 18.1876 8.46758 18.1256C8.09866 17.9038 7.8382 17.5737 7.48728 17.3311C7.47972 17.153 7.62929 17.1324 7.76864 17.099C7.67574 16.877 7.18815 16.9726 7.20881 17.2846C7.2137 17.3906 7.2886 17.3826 7.30149 17.5195C7.1957 17.4704 7.18037 17.3286 7.04369 17.3106C7.10814 17.2668 7.09769 17.1506 6.99724 17.1455C6.88901 17.1248 6.95346 17.2746 6.90435 17.3106C6.78834 17.3106 6.79078 17.2848 6.69544 17.3106C6.70589 17.4551 6.89657 17.5042 6.99724 17.4266C7.04636 17.5091 7.04636 17.5531 6.99724 17.6382C7.08503 17.7671 7.30149 17.7542 7.44083 17.7284C7.48728 17.736 7.43594 17.664 7.41772 17.6589C7.46683 17.5971 7.52106 17.726 7.53373 17.7775C7.46417 17.8084 7.39172 17.824 7.32238 17.8315C7.07703 17.7206 6.8399 17.5993 6.60766 17.4677C6.58188 17.4111 6.51987 17.388 6.45031 17.3748C6.4012 17.3491 6.35475 17.3182 6.3083 17.2897C6.3083 17.2897 6.3083 17.2897 6.3083 17.2871C6.30563 17.2871 6.30563 17.2871 6.30074 17.2844C5.67381 16.8924 5.10354 16.4228 4.59817 15.8863C4.58261 15.8552 4.55927 15.8296 4.53105 15.8167C3.1225 14.2871 2.26354 12.244 2.26354 10.0021C2.26354 9.14823 2.38733 8.3255 2.61957 7.54634C2.6529 7.64434 2.64802 7.78124 2.7278 7.83258C2.86981 7.74746 2.7098 7.50767 2.68646 7.33988C2.68646 7.33476 2.68913 7.32699 2.69157 7.32188C2.74558 7.47144 2.87203 7.60545 2.91337 7.7628C2.93648 7.85302 2.88226 7.91525 2.89026 7.99504C2.9187 8.27372 3.13539 8.30484 3.38029 8.48774C3.4963 8.51619 3.4783 8.41573 3.56609 8.4184C3.6332 8.73042 4.08968 8.6582 4.10524 9.022C4.15169 9.09934 4.26014 9.1149 4.26525 9.23335C4.38926 9.21024 4.37615 9.32358 4.52327 9.32891C4.56705 9.29291 4.52838 9.17668 4.61617 9.1869C4.73484 9.28758 4.7424 9.49915 4.73218 9.72361C4.64684 9.93762 4.35793 10.2448 4.56972 10.4717C4.38926 10.6575 4.57994 10.959 4.73218 11.0315C4.82241 11.372 4.95664 11.6635 5.15265 11.8931C5.34889 11.9344 5.42601 12.0891 5.52691 12.2209C5.52957 12.7163 5.59402 13.1443 5.64291 13.5752C5.67381 13.8101 5.58869 14.0446 5.59913 14.2744C5.61202 14.5917 5.84671 14.798 5.80782 15.1387C5.76915 15.1413 5.71759 15.1282 5.71492 15.1618C5.67625 15.3038 5.80515 15.2727 5.83093 15.3502C5.9316 15.6829 6.00139 16.0494 6.32119 16.1654C6.39342 16.1756 6.33919 16.057 6.39342 16.0519C6.41653 15.9898 6.40097 16.2505 6.32386 16.2376C6.42431 16.3845 6.73633 16.467 6.93013 16.3999C6.72367 16.2503 6.53276 16.0825 6.41653 15.8401C6.48387 15.7369 6.54298 15.6234 6.60232 15.5149C6.58943 15.4014 6.47076 15.3989 6.41653 15.3267C6.39586 15.2287 6.51987 15.2751 6.55587 15.2338C6.51987 15.2002 6.53521 15.1151 6.53276 15.0453C6.56121 15.0142 6.64633 15.0376 6.64877 14.9758C6.65922 14.8598 6.46298 14.9447 6.48631 14.8133C6.54587 14.834 6.61032 14.8444 6.69522 14.8364C6.73389 14.7566 6.69522 14.6818 6.69522 14.6044C7.04102 14.7229 7.23704 14.4624 7.06947 14.207C7.13659 14.2097 7.2217 14.1942 7.25771 14.2302C7.53106 14.0702 7.62151 13.7246 7.81775 13.4821C7.82531 13.3739 7.77397 13.3221 7.79464 13.2034C7.88242 13.0592 8.07066 13.0152 8.18911 12.8992C8.29512 12.8887 8.38802 12.9325 8.47047 12.8992C8.68448 12.8138 8.77227 12.1538 8.72849 11.7795C8.81627 11.71 9.26497 11.2482 9.16941 10.985C9.06629 10.6961 8.4318 10.3994 8.00354 10.4486C7.89509 10.1983 7.61129 10.2316 7.39705 10.1207C7.31727 9.70294 7.14414 9.3778 6.60254 9.42159C6.49676 9.18935 6.16673 9.09645 6.13562 8.86177C5.98583 8.84377 5.88271 8.87221 5.83382 8.95466C5.74603 8.89777 5.70225 8.92355 5.57602 8.93155C5.53446 8.84643 5.44423 8.81554 5.41356 8.72264C5.30533 8.72264 5.31556 8.80021 5.27155 8.69687C5.0782 8.78465 4.88463 8.86977 4.82796 9.09401C4.74262 9.05023 4.55461 8.99089 4.40993 9.09401C4.15969 8.89044 4.56461 8.18616 3.96634 8.36929C4.01012 8.17572 4.09257 8.0157 4.12857 7.81191C4.10035 7.79124 4.0719 7.78102 4.04879 7.77057C4.11591 7.68546 4.2268 7.64679 4.39459 7.66234C4.39459 7.33988 4.04635 7.33454 3.79344 7.40699C3.7521 7.3321 3.65409 7.24454 3.53808 7.1672C3.59498 7.0743 3.67232 7.00474 3.7781 6.97096C3.89167 6.96074 3.89411 7.05874 3.98967 7.06386C4.05146 7.04074 4.06701 6.96829 4.05901 6.87562C4.23725 6.83939 4.25792 6.91695 4.40993 6.87562C4.4306 7.07163 4.47171 7.25209 4.54927 7.38899C4.81241 7.15675 4.51305 6.7545 4.68862 6.48092C4.81752 6.28224 5.05998 6.28224 5.13221 6.03733C5.14532 5.95977 5.11687 5.92888 5.1091 5.87488C5.24844 5.78709 5.28955 5.60153 5.36712 5.45174C5.51668 5.4004 5.5578 5.24039 5.71514 5.19661C5.74626 5.10371 5.64047 5.15016 5.66869 5.05726C5.73581 4.90747 5.93983 4.88947 6.04295 4.77858C6.07406 4.81458 6.02228 4.91525 6.08939 4.96437C6.23896 4.85858 6.43764 4.79924 6.57943 4.68301C6.6001 4.57989 6.53809 4.55411 6.46342 4.54367C6.46609 4.47655 6.56143 4.50233 6.55632 4.42788C6.54098 4.34521 6.3783 4.4021 6.3243 4.35832C6.3423 4.1512 6.54098 4.26543 6.67233 4.17253C6.69544 4.05586 6.52543 4.13186 6.48654 4.07763C6.63099 3.99763 6.88657 4.02608 6.90723 3.81962C7.11614 3.78872 7.22459 3.65605 7.2786 3.47026C7.26837 3.35025 7.09814 3.39025 7.11636 3.23668C7.03102 3.24446 6.96391 3.23268 6.90746 3.21468C6.85323 2.98778 6.79389 2.76709 6.719 2.55952C6.65188 2.56863 6.61077 2.60197 6.57699 2.64464C6.5721 2.64197 6.56943 2.6382 6.5641 2.63686C6.54098 2.66797 6.48654 2.65775 6.44275 2.63064C6.94835 2.32884 7.4875 2.07726 8.0551 1.88258C8.08088 1.91592 8.10933 1.94837 8.166 1.95348C8.12222 2.05015 8.11955 2.09015 8.18911 2.16216C8.28468 2.18038 8.32335 2.14016 8.40068 2.14016C8.44713 2.17127 8.46002 2.23705 8.51669 2.25617C8.69471 2.1466 8.93962 1.98659 8.86739 1.76613C8.92428 1.73768 8.95539 1.68101 8.98095 1.61901C9.58478 1.48478 10.2088 1.41388 10.8513 1.41388C11.8187 1.41388 12.7472 1.57634 13.6166 1.87192C13.5391 2.09638 13.632 2.47818 13.8384 2.51307C13.9985 2.54019 14.0371 2.41373 14.2127 2.37373C14.2487 2.53752 14.352 2.63797 14.4447 2.74665C14.4498 2.86154 14.272 2.79176 14.3056 2.93355C14.352 3.07689 14.6716 3.08067 14.7725 3.02645C14.801 2.82132 14.7905 2.57886 14.961 2.51307C14.9636 2.49241 14.9636 2.47441 14.961 2.46018C15.1234 2.54908 15.2808 2.64331 15.4357 2.74265C15.4615 2.81865 15.5415 2.86888 15.5439 2.98111C15.433 2.98755 15.4717 2.84821 15.3554 2.86377C15.2032 2.91155 15.2445 3.15534 15.1697 3.28446C14.8885 3.18112 14.6358 3.40447 14.4009 3.19024C14.4732 3.03289 14.2978 3.042 14.236 2.95666C14.2978 2.78909 14.3056 2.71153 14.236 2.53752C13.9238 2.55419 13.9651 2.89088 14.0736 3.09734C13.9702 3.10645 13.8002 3.10001 13.6762 3.14512C13.5964 3.23668 13.5833 3.39536 13.3951 3.37869C13.3228 3.31424 13.4749 3.26269 13.3951 3.19024C13.3615 3.14512 13.2764 3.15557 13.2326 3.12068C13.2275 2.96066 13.1371 2.88844 13.021 2.83954C13.039 2.75287 13.0522 2.67442 12.9281 2.67709C12.9128 2.57775 13.003 2.58286 12.9977 2.48996C12.9824 2.43062 12.923 2.40884 12.8353 2.4204C12.8146 2.35462 12.8688 2.35995 12.8584 2.30439C12.8197 2.26439 12.7217 2.28506 12.647 2.27995C12.5361 2.3484 12.5541 2.5433 12.4612 2.63086C12.4508 2.70442 12.5748 2.63842 12.5541 2.72376C12.5695 2.81665 12.4432 2.75331 12.4381 2.72376C12.2859 2.78421 12.2472 2.91333 12.0639 2.88732C12.0847 2.97644 12.095 3.07578 12.087 3.19046C12.1465 3.2498 12.2521 3.26002 12.2959 3.33114C12.4352 3.30269 12.5359 3.24468 12.6003 3.14268C12.6003 3.07312 12.6003 3.00333 12.6003 2.93377C12.657 2.9131 12.7035 2.87844 12.7888 2.88732C12.7657 2.97889 12.8581 2.95689 12.835 3.04867C12.7784 3.04734 12.7215 3.046 12.6959 3.07312C12.6777 3.1609 12.7346 3.17246 12.719 3.26024C12.6595 3.25624 12.6055 3.25624 12.5797 3.28469C12.5846 3.34514 12.6337 3.36714 12.719 3.35425C12.7086 3.45114 12.6079 3.46114 12.5797 3.54004C12.7421 3.59538 13.0182 3.56071 13.1626 3.51693C13.1162 3.63294 13.2375 3.57871 13.2322 3.65627C13.0026 3.53893 12.9948 3.75028 12.7188 3.70383C12.6852 3.73361 12.6957 3.8045 12.6957 3.86762C12.9019 3.97474 13.2064 4.09719 13.067 4.47211C12.7395 4.52611 12.3732 4.29165 12.1823 4.49767C12.319 4.78146 12.1514 5.06282 12.2054 5.33862C12.3448 5.37484 12.5459 5.35173 12.6235 5.45218C12.5539 5.51685 12.4841 5.57863 12.4841 5.7102C12.141 5.78776 12.1874 6.25713 11.9707 6.45826C11.55 6.6156 11.4391 7.08008 11.1993 7.41277C11.4005 7.61656 11.3051 8.07326 11.1762 8.2795C11.2122 8.35929 11.274 8.41373 11.2458 8.55797C11.3151 8.66909 11.4365 8.72576 11.55 8.79287C11.7125 9.16179 11.8958 9.63382 12.2954 9.6776C12.471 9.69827 12.5612 9.54604 12.7161 9.53826C12.8657 9.53315 12.9095 9.64405 13.0668 9.65427C13.3068 9.58982 13.526 9.38092 13.7684 9.42203C13.9696 9.45803 14.1089 9.80895 14.3516 9.63093C14.4367 9.79339 14.4029 10.121 14.3258 10.2603C14.416 10.5621 14.6432 10.7248 14.6998 11.0548C15.141 11.3668 14.6354 11.834 14.6767 12.2467C14.6974 12.4529 14.8832 12.6078 14.9116 12.8296C14.9632 13.263 15.0948 13.5803 15.3088 13.9026C15.3114 13.9699 15.229 13.949 15.2623 14.0419C15.3526 14.4057 15.737 14.0239 15.9615 14.1115C16.186 13.9697 16.4464 13.8664 16.5213 13.575C16.8207 13.4614 16.836 13.0641 16.9882 12.8036C17.0271 12.8036 17.0658 12.8036 17.1042 12.8036C17.1894 12.6796 17.1971 12.4167 17.1042 12.2927C17.2103 12.0709 17.4114 11.9447 17.5945 11.8027C17.6047 11.5086 17.7183 11.3279 17.641 11.101C17.6047 10.9928 17.4681 10.9386 17.4552 10.843C17.3983 10.4743 17.8834 10.3788 17.9221 9.98141C17.9839 9.96607 18.0099 9.91429 18.0614 9.88851C18.1363 9.47848 18.4252 9.16134 18.3892 8.71998C18.2137 8.8051 17.997 8.82599 17.8292 8.86199C17.7674 8.7871 17.8705 8.73042 17.8988 8.67353C17.7081 8.38195 17.3185 8.06482 17.3854 7.67012C17.2307 7.46633 17.0576 7.15653 17.0345 6.90118C17.1789 6.87029 17.2254 7.12586 17.2694 7.27276C17.29 7.36832 17.3932 7.38366 17.4318 7.46122C17.4525 7.89192 17.7825 8.01081 17.8032 8.44151C17.8961 8.51352 17.8832 8.68909 18.0148 8.71998C18.1077 8.73554 18.0819 8.63219 18.0843 8.55752C18.3346 8.38729 18.639 8.27395 18.8531 8.06749C18.8531 7.89481 18.9613 7.87658 18.9486 7.73968C18.9333 7.59012 18.737 7.53589 18.737 7.36832C18.8584 7.37855 18.9408 7.42766 19.0517 7.45077C19.3046 8.25839 19.4387 9.11467 19.4387 10.0019C19.4387 13.4666 17.3827 16.4537 14.4263 17.808C14.2025 17.7978 14.0167 17.8184 13.9084 17.9627ZM6.18229 4.19253C6.11784 4.17186 6.20296 4.11053 6.20296 4.07586C6.29319 4.08764 6.31897 4.03341 6.41453 4.05274C6.40142 4.16409 6.24407 4.13142 6.18229 4.19253ZM6.29852 4.47122C6.35253 4.47878 6.39408 4.49944 6.43787 4.52011C6.41697 4.56923 6.26741 4.55123 6.29852 4.47122ZM5.10643 4.07586C5.02664 3.95185 5.0782 3.79339 5.10643 3.65538C5.1091 3.63982 5.10132 3.63449 5.09109 3.63227C5.23799 3.49915 5.39045 3.37425 5.54513 3.25024C5.51668 3.47092 5.34645 3.55093 5.22266 3.67872C5.282 3.80628 5.29222 4.06541 5.10643 4.07586ZM4.92064 4.96392C4.82018 4.87369 4.79685 5.01304 4.78151 5.07993C4.7584 5.01037 4.72462 4.94837 4.70929 4.86836C4.78151 4.90192 4.7944 4.85814 4.89752 4.86836C4.89508 4.91236 4.92597 4.91747 4.92064 4.96392ZM4.40749 4.75235C4.44104 4.70857 4.50549 4.69568 4.52349 4.63634C4.59839 4.65701 4.64484 4.70079 4.6395 4.7988C4.5595 4.7808 4.55172 4.83502 4.47705 4.82191C4.50283 4.74968 4.50038 4.74702 4.40749 4.75235ZM4.3377 4.84791C4.29637 4.82991 4.33503 4.80413 4.3377 4.77569C4.37904 4.79347 4.34037 4.8168 4.3377 4.84791ZM3.79344 7.43255C3.78833 7.48678 3.827 7.497 3.82188 7.54856C3.74188 7.54345 3.66721 7.54589 3.67987 7.63368C3.73143 7.77035 3.86833 7.7059 3.96878 7.76013C3.78833 7.78324 3.81655 8.19861 3.51986 8.13927C3.49675 8.06971 3.47608 7.99215 3.46319 7.91481C3.48897 7.9097 3.52253 7.90436 3.56631 7.8917C3.54053 7.74724 3.48386 7.71124 3.43474 7.7239C3.42963 7.65679 3.43208 7.58723 3.43741 7.52011C3.59231 7.52811 3.67743 7.46366 3.79344 7.43255ZM5.24844 8.90555C5.24577 8.84888 5.28444 8.83599 5.29489 8.78954C5.38 8.80754 5.32333 8.91599 5.24844 8.90555ZM18.6679 7.17986C18.5933 7.29343 18.5648 7.44811 18.3637 7.43788C18.3121 7.37343 18.2966 7.27009 18.2941 7.15653C18.2503 7.11275 18.2088 7.14897 18.1548 7.15653C18.1161 7.00696 18.0205 6.91673 18.0128 6.73605C18.2657 6.80561 18.2114 7.17453 18.459 7.24943C18.5595 7.2572 18.5777 7.18231 18.6679 7.17986ZM18.0359 5.29661C18.0359 5.30173 18.0359 5.30706 18.0385 5.31217C18.0565 5.33773 18.0772 5.36351 18.0954 5.38951C18.1057 5.40484 18.1134 5.42062 18.121 5.43329C18.1779 5.52107 18.2217 5.61908 18.2243 5.75576C17.8708 5.77109 17.7341 5.49774 17.8528 5.17283C17.7032 5.02304 17.5638 4.79858 17.5047 4.57434C17.6927 4.80391 17.8708 5.04637 18.0359 5.29661ZM15.5412 6.36203C15.1723 6.23313 14.9634 5.94422 14.6074 5.80221C14.6616 5.6113 14.4992 5.57775 14.5609 5.45129C14.4914 5.42551 14.4243 5.4024 14.3727 5.3584C14.3031 5.36617 14.2694 5.40996 14.2102 5.43062C13.9187 5.39462 13.6606 5.36884 13.3924 5.43062C13.1422 5.48485 12.8893 5.68598 12.647 5.47707C12.9486 5.45907 13.1628 5.38151 13.3228 5.21927C13.2713 4.82458 13.6195 4.82969 13.6735 4.54078C13.8956 4.62323 14.0658 4.56389 14.2336 4.47122C14.422 4.76524 14.8476 4.82191 14.9327 5.21927C14.8114 5.23994 14.7058 5.27861 14.5845 5.19616C14.5407 5.33284 14.693 5.45663 14.7703 5.54685C14.8425 5.56486 14.8554 5.52107 14.9096 5.52374C14.9201 5.44129 14.9019 5.39218 14.8865 5.33528C14.9561 5.33528 15.0052 5.40484 15.0516 5.36106C15.0645 5.28906 15.1161 5.25283 15.191 5.24261C15.2063 5.15727 15.1394 5.15238 15.1445 5.08015C15.2219 5.08015 15.2581 5.19105 15.3301 5.1266C15.3379 4.9177 15.1083 4.94348 15.075 4.77569C15.2143 4.73435 15.2581 4.79369 15.3534 4.84791C15.4103 5.23216 15.5524 5.53419 15.867 5.66309C15.9057 5.68109 15.9057 5.55486 15.867 5.57019C15.8902 5.49796 15.9315 5.59597 15.9599 5.5933C16.0166 5.60108 15.9468 5.48752 16.0319 5.52374C15.9726 5.33795 15.9366 5.27083 15.9366 5.03371C16.1197 5.03371 16.1042 5.31728 16.1015 5.43085C16.21 5.58063 16.37 5.79198 16.6382 5.70953C16.7207 5.70442 16.7129 5.78932 16.7776 5.80243C16.878 5.80243 16.9271 5.7482 17.0354 5.75598C17.0096 5.97778 17.0302 6.15312 16.9889 6.38536C16.5322 6.34936 16.0862 6.31313 15.8462 6.014C15.7766 6.08334 15.5779 6.02689 15.5183 6.10423C15.5001 6.21779 15.5544 6.25624 15.5412 6.36203ZM13.3228 3.46848C13.3951 3.43492 13.3562 3.60382 13.2997 3.58449C13.2893 3.52893 13.3408 3.53404 13.3228 3.46848ZM16.3333 4.96392C16.2895 4.90703 16.2535 4.84258 16.194 4.7988C16.2689 4.68012 16.318 4.53567 16.4029 4.42477C16.5138 4.41699 16.5086 4.52011 16.6378 4.49433C16.6093 4.56367 16.63 4.57412 16.6584 4.63612C16.7616 4.58478 16.8673 4.63879 16.9654 4.65923C16.9836 4.569 16.914 4.569 16.87 4.54078C16.906 4.49433 17.0349 4.53567 17.0814 4.49433C17.0738 4.54834 17.0865 4.58456 17.1278 4.58967C17.1305 4.63879 17.0454 4.60012 17.0118 4.61034C17.0274 4.65946 17.0556 4.69301 17.0867 4.72635C17.0531 4.72902 17.0196 4.73413 16.9887 4.74946C16.9758 4.91725 17.0714 4.97148 17.1616 5.03326C17.2183 4.98681 17.3189 4.98415 17.3756 4.93525C17.4352 4.9817 17.4816 5.0386 17.4996 5.12616C17.0814 5.1366 16.8416 4.82191 16.3333 4.96392Z"
          fill="black"/>
</svg>
