<svg width="553" height="397" viewBox="0 0 553 397" fill="none" xmlns="http://www.w3.org/2000/svg">
<path d="M345.384 198.669C345.384 244.278 314.456 281.252 276.306 281.252C238.155 281.252 207.227 244.278 207.227 198.669C207.227 153.058 238.155 116.086 276.306 116.086C293.459 116.086 309.151 123.56 321.23 135.932C318.177 133.815 314.629 132.603 310.845 132.603C299.4 132.603 290.121 143.693 290.121 157.377C290.121 171.06 299.4 182.152 310.845 182.152C322.29 182.152 331.568 171.06 331.568 157.377C331.568 152.852 330.554 148.612 328.783 144.962C339.133 159.401 345.384 178.162 345.384 198.669Z" fill="#001722"/>
<path fill-rule="evenodd" clip-rule="evenodd" d="M552.628 198.652C552.628 198.652 400.656 0.453125 277.041 0.453125C153.428 0.453125 0 198.652 0 198.652C0 198.652 153.428 396.851 277.041 396.851C400.656 396.851 552.628 198.652 552.628 198.652ZM44.9634 191.6C42.7939 194.071 40.749 196.427 38.8361 198.651C40.749 200.875 42.7939 203.232 44.9634 205.703C60.7904 223.728 83.0877 247.695 109.027 271.581C124.328 285.67 140.713 299.564 157.626 312.133C136.798 281.039 124.341 241.584 124.341 198.652C124.341 155.719 136.798 116.264 157.626 85.17C140.713 97.7408 124.328 111.633 109.027 125.722C83.0877 149.608 60.7904 173.575 44.9634 191.6ZM444.257 271.647C428.455 286.297 411.48 300.733 393.949 313.687C415.409 282.358 428.287 242.302 428.287 198.652C428.287 155.001 415.409 114.944 393.949 83.6158C411.48 96.5698 428.455 111.005 444.257 125.655C470.009 149.53 492.12 173.488 507.809 191.504C509.99 194.011 512.046 196.399 513.965 198.652C512.046 200.903 509.99 203.292 507.809 205.799C492.12 223.815 470.009 247.773 444.257 271.647ZM276.314 347.302C344.987 347.302 400.656 280.748 400.656 198.652C400.656 116.555 344.987 50.0029 276.314 50.0029C207.642 50.0029 151.973 116.555 151.973 198.652C151.973 280.748 207.642 347.302 276.314 347.302Z" fill="#001722"/>
</svg>
