<svg width="553" height="397" viewBox="0 0 553 397" fill="none" xmlns="http://www.w3.org/2000/svg">
<path d="M345.616 198.365C345.616 244.005 314.668 281.004 276.491 281.004C238.315 281.004 207.366 244.005 207.366 198.365C207.366 152.724 238.315 115.727 276.491 115.727C293.656 115.727 309.359 123.205 321.446 135.586C318.391 133.467 314.84 132.254 311.054 132.254C299.601 132.254 290.316 143.353 290.316 157.046C290.316 170.737 299.601 181.837 311.054 181.837C322.506 181.837 331.791 170.737 331.791 157.046C331.791 152.517 330.776 148.275 329.004 144.622C339.36 159.07 345.616 177.844 345.616 198.365Z" fill="white"/>
<path fill-rule="evenodd" clip-rule="evenodd" d="M553 198.332C553 198.332 400.925 0 277.227 0C153.531 0 0 198.332 0 198.332C0 198.332 153.531 396.665 277.227 396.665C400.925 396.665 553 198.332 553 198.332ZM44.9936 191.275C42.8227 193.748 40.7764 196.106 38.8622 198.331C40.7764 200.557 42.8227 202.916 44.9936 205.388C60.8312 223.425 83.1436 247.408 109.1 271.311C124.411 285.409 140.808 299.312 157.732 311.889C136.89 280.774 124.425 241.293 124.425 198.332C124.425 155.37 136.89 115.889 157.732 84.7739C140.808 97.3531 124.411 111.255 109.1 125.353C83.1436 149.255 60.8312 173.238 44.9936 191.275ZM444.555 271.377C428.744 286.037 411.757 300.482 394.214 313.445C415.689 282.095 428.575 242.012 428.575 198.332C428.575 154.651 415.689 114.568 394.214 83.2186C411.757 96.1813 428.744 110.627 444.555 125.287C470.325 149.177 492.451 173.151 508.15 191.179C510.333 193.688 512.39 196.078 514.311 198.332C512.39 200.585 510.333 202.975 508.15 205.484C492.451 223.512 470.325 247.486 444.555 271.377ZM276.5 347.082C345.219 347.082 400.925 280.483 400.925 198.332C400.925 116.18 345.219 49.5831 276.5 49.5831C207.781 49.5831 152.075 116.18 152.075 198.332C152.075 280.483 207.781 347.082 276.5 347.082Z" fill="white"/>
</svg>
